squats_1_grf
version=1
nRows=30
nColumns=19
inDegrees=no
endheader
time	ground_force_left_vx	ground_force_left_vy	ground_force_left_vz	ground_force_left_px	ground_force_left_py	ground_force_left_pz	ground_force_left_mx	ground_force_left_my	ground_force_left_mz	ground_force_right_vx	ground_force_right_vy	ground_force_right_vz	ground_force_right_px	ground_force_right_py	ground_force_right_pz	ground_force_right_mx	ground_force_right_my	ground_force_right_mz
     24.87500000	     19.97737904	    518.45554030	    140.48258729	     -2.32216961	      0.00978377	      2.16853759	     -0.00219437	      1.11916619	     -0.00279861	     -5.09628464	    591.79395740	   -153.92168850	     -2.30331958	      0.01026326	      2.76060212	     -0.00331028	      2.68217166	      0.00801468
     24.87600000	     19.76068216	    519.92388727	    140.90709786	     -2.32213689	      0.00978379	      2.16852059	     -0.00220276	      1.12344989	     -0.00280932	     -5.18995880	    591.68605580	   -153.96032169	     -2.30329551	      0.01026323	      2.76061969	     -0.00331232	      2.68383135	      0.00801964
     24.87700000	     19.54797810	    521.37267543	    141.33334204	     -2.32210384	      0.00978381	      2.16850266	     -0.00221146	      1.12788631	     -0.00282041	     -5.27555811	    591.58304038	   -153.99811779	     -2.30327311	      0.01026321	      2.76063661	     -0.00331446	      2.68556064	      0.00802480
     24.87800000	     19.33975378	    522.79784238	    141.76015624	     -2.32207093	      0.00978383	      2.16848389	     -0.00222041	      1.13244691	     -0.00283182	     -5.35305253	    591.48736884	   -154.03540041	     -2.30325250	      0.01026319	      2.76065284	     -0.00331668	      2.68736280	      0.00803019
     24.87900000	     19.13658390	    524.19535011	    142.18630027	     -2.32203862	      0.00978384	      2.16846436	     -0.00222953	      1.13709995	     -0.00284345	     -5.42243879	    591.40134951	   -154.07247003	     -2.30323381	      0.01026316	      2.76066835	     -0.00331900	      2.68924257	      0.00803581
     24.88000000	     18.93912622	    525.56122669	    142.61047215	     -2.32200740	      0.00978385	      2.16844418	     -0.00223877	      1.14181073	     -0.00285523	     -5.48373949	    591.32711172	   -154.10960284	     -2.30321710	      0.01026314	      2.76068310	     -0.00332143	      2.69120602	      0.00804167
     24.88100000	     18.74811492	    526.89160857	    143.03132390	     -2.32197775	      0.00978386	      2.16842345	     -0.00224804	      1.14654195	     -0.00286706	     -5.53700235	    591.26657941	   -154.14704992	     -2.30320247	      0.01026312	      2.76069709	     -0.00332396	      2.69326037	      0.00804781
     24.88200000	     18.56435233	    528.18278301	    143.44747827	     -2.32195016	      0.00978386	      2.16840231	     -0.00225728	      1.15125420	     -0.00287885	     -5.58229949	    591.22144853	   -154.18503681	     -2.30318998	      0.01026309	      2.76071028	     -0.00332662	      2.69541375	      0.00805425
     24.88300000	     18.38869909	    529.43122957	    143.85754586	     -2.32192510	      0.00978386	      2.16838088	     -0.00226640	      1.15590646	     -0.00289048	     -5.61972679	    591.19316848	   -154.22376338	     -2.30317965	      0.01026307	      2.76072268	     -0.00332941	      2.69767491	      0.00806100
     24.88400000	     18.22206305	    530.63366025	    144.26014249	     -2.32190306	      0.00978385	      2.16835929	     -0.00227532	      1.16045677	     -0.00290186	     -5.64940324	    591.18292788	   -154.26340382	     -2.30317151	      0.01026304	      2.76073428	     -0.00333235	      2.70005293	      0.00806811
     24.88500000	     18.06538689	    531.78705746	    144.65390636	     -2.32188446	      0.00978383	      2.16833769	     -0.00228396	      1.16486291	     -0.00291288	     -5.67147019	    591.19164471	   -154.30410695	     -2.30316557	      0.01026302	      2.76074510	     -0.00333544	      2.70255685	      0.00807559
     24.88600000	     17.91963491	    532.88870913	    145.03751494	     -2.32186973	      0.00978380	      2.16831622	     -0.00229224	      1.16908307	     -0.00292343	     -5.68609059	    591.21996098	   -154.34599641	     -2.30316181	      0.01026299	      2.76075514	     -0.00333869	      2.70519530	      0.00808348
     24.88700000	     17.78577889	    533.93624051	    145.40970104	     -2.32185926	      0.00978377	      2.16829504	     -0.00230007	      1.17307662	     -0.00293342	     -5.69344809	    591.26824181	   -154.38917100	     -2.30316019	      0.01026297	      2.76076443	     -0.00334212	      2.70797616	      0.00809179
     24.88800000	     17.66478340	    534.92764204	    145.76926802	     -2.32185341	      0.00978373	      2.16827427	     -0.00230738	      1.17680478	     -0.00294274	     -5.69374604	    591.33657872	   -154.43370494	     -2.30316068	      0.01026294	      2.76077299	     -0.00334574	      2.71090613	      0.00810054
     24.88900000	     17.55759060	    535.86129284	    146.11510385	     -2.32185248	      0.00978368	      2.16825406	     -0.00231410	      1.18023130	     -0.00295131	     -5.68720634	    591.42479702	   -154.47964802	     -2.30316320	      0.01026292	      2.76078087	     -0.00334955	      2.71399038	      0.00810976
     24.89000000	     17.46510482	    536.73597952	    146.44619384	     -2.32185675	      0.00978363	      2.16823455	     -0.00232016	      1.18332312	     -0.00295904	     -5.67406820	    591.53246696	   -154.52702567	     -2.30316766	      0.01026289	      2.76078811	     -0.00335355	      2.71723222	      0.00811944
     24.89100000	     17.38817714	    537.55090989	    146.76163178	     -2.32186643	      0.00978356	      2.16821587	     -0.00232551	      1.18605088	     -0.00296586	     -5.65458680	    591.65891824	   -154.57583899	     -2.30317399	      0.01026286	      2.76079474	     -0.00335774	      2.72063274	      0.00812960
     24.89200000	     17.32759002	    538.30572146	    147.06062946	     -2.32188169	      0.00978349	      2.16819814	     -0.00233009	      1.18838949	     -0.00297171	     -5.62903187	    591.80325763	   -154.62606451	     -2.30318205	      0.01026283	      2.76080082	     -0.00336214	      2.72419055	      0.00814024
     24.89300000	     17.28404240	    539.00048444	    147.34252431	     -2.32190265	      0.00978340	      2.16818149	     -0.00233387	      1.19031846	     -0.00297653	     -5.59768620	    591.96438917	   -154.67765405	     -2.30319173	      0.01026280	      2.76080640	     -0.00336672	      2.72790154	      0.00815132
     24.89400000	     17.25813534	    539.63569941	    147.60678522	     -2.32192936	      0.00978331	      2.16816602	     -0.00233682	      1.19182233	     -0.00298029	     -5.56084413	    592.14103655	   -154.73053442	     -2.30320289	      0.01026278	      2.76081154	     -0.00337148	      2.73175874	      0.00816285
     24.89500000	     17.25035850	    540.21228948	    147.85301630	     -2.32196182	      0.00978321	      2.16815182	     -0.00233892	      1.19289080	     -0.00298296	     -5.51881015	    592.33176737	   -154.78460719	     -2.30321538	      0.01026275	      2.76081629	     -0.00337640	      2.73575219	      0.00817478
     24.89600000	     17.26107763	    540.73158726	    148.08095875	     -2.32199997	      0.00978311	      2.16813897	     -0.00234015	      1.19351895	     -0.00298453	     -5.47189743	    592.53501881	   -154.83974855	     -2.30322905	      0.01026272	      2.76082070	     -0.00338149	      2.73986897	      0.00818708
     24.89700000	     17.29052333	    541.19531688	    148.29049085	     -2.32204369	      0.00978299	      2.16812757	     -0.00234052	      1.19370721	     -0.00298500	     -5.42042661	    592.74912440	   -154.89580939	     -2.30324374	      0.01026268	      2.76082483	     -0.00338670	      2.74409322	      0.00819971
     24.89800000	     17.33878124	    541.60557129	    148.48162599	     -2.32209282	      0.00978287	      2.16811765	     -0.00234004	      1.19346132	     -0.00298439	     -5.36472469	    592.97234167	   -154.95261562	     -2.30325928	      0.01026265	      2.76082874	     -0.00339202	      2.74840635	      0.00821260
     24.89900000	     17.40578386	    541.96478533	    148.65450907	     -2.32214712	      0.00978274	      2.16810928	     -0.00233873	      1.19279218	     -0.00298272	     -5.30512409	    593.20288028	   -155.00996897	     -2.30327549	      0.01026262	      2.76083246	     -0.00339743	      2.75278722	      0.00822569
     24.90000000	     17.49130416	    542.27570505	    148.80941122	     -2.32220632	      0.00978261	      2.16810248	     -0.00233661	      1.19171557	     -0.00298002	     -5.24196206	    593.43893047	   -155.06764827	     -2.30329220	      0.01026259	      2.76083606	     -0.00340289	      2.75721244	      0.00823891
     24.90100000	     17.59495107	    542.54135392	    148.94672312	     -2.32227009	      0.00978247	      2.16809727	     -0.00233374	      1.19025186	     -0.00297636	     -5.17558036	    593.67869152	   -155.12541140	     -2.30330925	      0.01026256	      2.76083955	     -0.00340838	      2.76165676	      0.00825219
     24.90200000	     17.71616697	    542.76499642	    149.06694705	     -2.32233805	      0.00978233	      2.16809367	     -0.00233016	      1.18842562	     -0.00297180	     -5.10632531	    593.92040007	   -155.18299805	     -2.30332644	      0.01026253	      2.76084300	     -0.00341385	      2.76609346	      0.00826545
     24.90300000	     17.85422729	    542.95009978	    149.17068795	     -2.32240979	      0.00978218	      2.16809166	     -0.00232593	      1.18626517	     -0.00296640	     -5.03454820	    594.16235795	   -155.24013318	     -2.30334363	      0.01026250	      2.76084642	     -0.00341928	      2.77049482	      0.00827860
     24.90400000	     18.00824219	    543.10029443	    149.25864354	     -2.32248485	      0.00978204	      2.16809123	     -0.00232110	      1.18380210	     -0.00296024	     -4.96060615	    594.40295945	   -155.29653138	     -2.30336063	      0.01026247	      2.76084984	     -0.00342464	      2.77483259	      0.00829156
